<svg width="300" height="200" viewBox="0 0 300 200" xmlns="http://www.w3.org/2000/svg">
  <!-- Dashboard Background -->
  <rect x="20" y="20" width="260" height="160" rx="8" fill="#f1f5f9" stroke="#cbd5e1" stroke-width="2"/>
  
  <!-- Charts -->
  <rect x="40" y="60" width="100" height="80" rx="4" fill="white" stroke="#cbd5e1" stroke-width="1"/>
  <path d="M50,110 Q70,70 80,100 Q90,130 100,90 Q110,50 120,80 L120,120 L50,120 Z" fill="rgba(67, 97, 238, 0.3)" stroke="rgba(67, 97, 238, 0.8)" stroke-width="2"/>
  
  <rect x="160" y="60" width="100" height="80" rx="4" fill="white" stroke="#cbd5e1" stroke-width="1"/>
  <rect x="170" y="110" width="12" height="30" fill="rgba(67, 97, 238, 0.8)" rx="2"/>
  <rect x="190" y="90" width="12" height="50" fill="rgba(76, 201, 240, 0.8)" rx="2"/>
  <rect x="210" y="100" width="12" height="40" fill="rgba(247, 37, 133, 0.8)" rx="2"/>
  <rect x="230" y="70" width="12" height="70" fill="rgba(74, 222, 128, 0.8)" rx="2"/>
  
  <!-- Navigation -->
  <rect x="40" y="30" width="220" height="20" rx="4" fill="white" stroke="#cbd5e1" stroke-width="1"/>
  <circle cx="50" cy="40" r="5" fill="rgba(67, 97, 238, 0.8)"/>
  <circle cx="70" cy="40" r="5" fill="rgba(76, 201, 240, 0.8)"/>
  <circle cx="90" cy="40" r="5" fill="rgba(247, 37, 133, 0.8)"/>
  
  <!-- Decorative Elements -->
  <rect x="40" y="150" width="220" height="10" rx="2" fill="white" stroke="#cbd5e1" stroke-width="1"/>
  <rect x="40" y="150" width="120" height="10" rx="2" fill="rgba(67, 97, 238, 0.3)"/>
  
  <!-- Admin Icon -->
  <circle cx="270" cy="40" r="8" fill="#3355ee" stroke="white" stroke-width="1"/>
  <text x="270" y="43" text-anchor="middle" fill="white" font-family="Arial" font-size="10" font-weight="bold">A</text>
</svg> 